<svg width="25" height="25" viewBox="0 0 25 25" fill="none" xmlns="http://www.w3.org/2000/svg">
<path d="M12.5 3.92969C17.4706 3.92969 21.5 7.95912 21.5 12.9297C21.5 17.9003 17.4706 21.9297 12.5 21.9297C7.52944 21.9297 3.5 17.9003 3.5 12.9297C3.5 7.95912 7.52944 3.92969 12.5 3.92969Z" fill="#F9F9F9"/>
<path d="M12.5 3.92969V4.42969C17.1944 4.42969 21 8.23527 21 12.9297H21.5H22C22 7.68298 17.7467 3.42969 12.5 3.42969V3.92969ZM21.5 12.9297H21C21 17.6241 17.1944 21.4297 12.5 21.4297V21.9297V22.4297C17.7467 22.4297 22 18.1764 22 12.9297H21.5ZM12.5 21.9297V21.4297C7.80558 21.4297 4 17.6241 4 12.9297H3.5H3C3 18.1764 7.25329 22.4297 12.5 22.4297V21.9297ZM3.5 12.9297H4C4 8.23527 7.80558 4.42969 12.5 4.42969V3.92969V3.42969C7.25329 3.42969 3 7.68298 3 12.9297H3.5Z" fill="#DCDCDC"/>
</svg>
