<svg width="35" height="34" viewBox="0 0 35 34" fill="none" xmlns="http://www.w3.org/2000/svg">
<path d="M17.2432 1C17.431 1 17.588 1.0419 17.7246 1.11914C17.8242 1.17551 17.9214 1.27707 17.999 1.4707V1.47168L18.0029 1.48047L22.1572 11.3145L22.2744 11.5918L22.5742 11.6172L33.2002 12.5449C33.4264 12.5854 33.5662 12.6559 33.6523 12.7295L33.6543 12.7314C33.7367 12.8012 33.8117 12.8909 33.877 13.0059L33.9395 13.1299C33.9935 13.2548 34.0032 13.3824 33.9609 13.5332C33.919 13.6823 33.8323 13.8195 33.6768 13.9463L33.6709 13.9502L33.665 13.9561L25.5928 20.9541L25.3643 21.1523L25.4336 21.4463L27.874 31.8311L27.8789 31.8525L27.8857 31.8721C27.9458 32.0554 27.9325 32.1925 27.8779 32.3125C27.8039 32.4748 27.7031 32.5864 27.5752 32.6641L27.5703 32.667C27.4124 32.7657 27.2603 32.8176 27.1113 32.834H27.1104C27.0035 32.8457 26.856 32.8247 26.6543 32.7275L17.502 27.2031L17.2432 27.0469L16.9854 27.2031L7.83398 32.7285C7.63321 32.825 7.48401 32.8459 7.375 32.834C7.22628 32.8158 7.07351 32.7638 6.91406 32.668C6.78446 32.5882 6.68451 32.4761 6.6123 32.3164C6.55842 32.197 6.54412 32.0567 6.60352 31.8662L6.61328 31.8311L9.05371 21.4463L9.12305 21.1523L8.89453 20.9541L0.821289 13.9561L0.816406 13.9502L0.810547 13.9463L0.706055 13.8486C0.614098 13.7498 0.556801 13.645 0.525391 13.5332C0.483304 13.3831 0.494435 13.2559 0.549805 13.1309C0.626885 12.9569 0.722158 12.8261 0.832031 12.7285C0.920183 12.6556 1.06232 12.5867 1.28809 12.5449L11.9131 11.6172L12.2129 11.5918L12.3301 11.3145L16.4834 1.48047L16.4854 1.47656C16.5666 1.27942 16.6659 1.17613 16.7656 1.11914C16.8998 1.04263 17.0552 1.00004 17.2432 1Z" fill="#EFEFEF" stroke="#E6E6E6"/>
</svg>
