<svg width="24" height="25" viewBox="0 0 24 25" fill="none" xmlns="http://www.w3.org/2000/svg">
<path d="M12 8.8374C11.6022 8.8374 11.2206 8.99544 10.9393 9.27674C10.658 9.55805 10.5 9.93958 10.5 10.3374V10.4444C10.5 10.577 10.4473 10.7042 10.3536 10.798C10.2598 10.8917 10.1326 10.9444 10 10.9444C9.86739 10.9444 9.74021 10.8917 9.64645 10.798C9.55268 10.7042 9.5 10.577 9.5 10.4444V10.3374C9.5 9.67436 9.76339 9.03848 10.2322 8.56964C10.7011 8.10079 11.337 7.8374 12 7.8374H12.116C12.6029 7.83755 13.0781 7.98679 13.4777 8.26504C13.8772 8.5433 14.182 8.93723 14.351 9.39386C14.52 9.85049 14.5452 10.3479 14.4231 10.8193C14.301 11.2906 14.0375 11.7133 13.668 12.0304L12.897 12.6914C12.7727 12.7982 12.6728 12.9306 12.6043 13.0796C12.5358 13.2285 12.5002 13.3905 12.5 13.5544V14.0874C12.5 14.22 12.4473 14.3472 12.3536 14.441C12.2598 14.5347 12.1326 14.5874 12 14.5874C11.8674 14.5874 11.7402 14.5347 11.6464 14.441C11.5527 14.3472 11.5 14.22 11.5 14.0874V13.5544C11.5 12.9304 11.773 12.3384 12.246 11.9324L13.016 11.2724C13.2307 11.0884 13.384 10.8431 13.4551 10.5694C13.5262 10.2957 13.5117 10.0068 13.4137 9.74159C13.3157 9.47636 13.1387 9.24752 12.9067 9.08586C12.6747 8.92421 12.3988 8.8375 12.116 8.8374H12ZM12 16.8374C12.1989 16.8374 12.3897 16.7584 12.5303 16.6177C12.671 16.4771 12.75 16.2863 12.75 16.0874C12.75 15.8885 12.671 15.6977 12.5303 15.5571C12.3897 15.4164 12.1989 15.3374 12 15.3374C11.8011 15.3374 11.6103 15.4164 11.4697 15.5571C11.329 15.6977 11.25 15.8885 11.25 16.0874C11.25 16.2863 11.329 16.4771 11.4697 16.6177C11.6103 16.7584 11.8011 16.8374 12 16.8374Z" fill="black"/>
<path d="M3.5 12.3374C3.5 10.0831 4.39553 7.92105 5.98959 6.32699C7.58365 4.73294 9.74566 3.8374 12 3.8374C14.2543 3.8374 16.4163 4.73294 18.0104 6.32699C19.6045 7.92105 20.5 10.0831 20.5 12.3374C20.5 14.5917 19.6045 16.7538 18.0104 18.3478C16.4163 19.9419 14.2543 20.8374 12 20.8374C9.74566 20.8374 7.58365 19.9419 5.98959 18.3478C4.39553 16.7538 3.5 14.5917 3.5 12.3374ZM12 4.8374C10.0109 4.8374 8.10322 5.62758 6.6967 7.0341C5.29018 8.44062 4.5 10.3483 4.5 12.3374C4.5 14.3265 5.29018 16.2342 6.6967 17.6407C8.10322 19.0472 10.0109 19.8374 12 19.8374C13.9891 19.8374 15.8968 19.0472 17.3033 17.6407C18.7098 16.2342 19.5 14.3265 19.5 12.3374C19.5 10.3483 18.7098 8.44062 17.3033 7.0341C15.8968 5.62758 13.9891 4.8374 12 4.8374Z" fill="black"/>
</svg>
